Coordinates
version=1
nRows=54
nColumns=12
inDegrees=yes

Units are S.I. units (second, meters, Newtons, ...)
Angles are in degrees

endheader
time	SC_y	SC_z	SC_x	AC_y	AC_z	AC_x	GH_y	GH_z	GH_yy	EL_x	PS_y
       0.0              -24.42          30.69          38.45           65.1          7.686          6.098          126.1          67.85         -117.1          13.07          15.79
   0.02367              -24.42          30.69          38.45           65.1          7.683          6.095          126.1          67.84         -117.1          13.07           15.8
   0.04734              -24.42          30.69          38.45           65.1           7.68          6.092          126.1          67.83         -117.0          13.08           15.8
   0.07101              -24.42          30.69          38.45           65.1          7.677          6.089          126.1          67.81         -117.0          13.09           15.8
   0.09467              -24.42          30.69          38.44          65.09          7.673          6.086          126.0           67.8         -117.0          13.11           15.8
    0.1183              -24.41          30.69          38.44          65.09          7.669          6.082          126.0          67.79         -117.0          13.12          15.81
     0.142              -24.41          30.69          38.44          65.08          7.665          6.078          126.0          67.77         -117.0          13.13          15.81
    0.1657              -24.41          30.69          38.44          65.08          7.661          6.074          126.0          67.75         -116.9          13.14          15.81
    0.1893              -24.41          30.69          38.44          65.08          7.656           6.07          126.0          67.74         -116.9          13.16          15.82
     0.213              -24.41          30.69          38.43          65.07          7.651          6.066          125.9          67.72         -116.9          13.17          15.82
    0.2367              -24.41          30.68          38.43          65.07          7.646          6.061          125.9           67.7         -116.8          13.19          15.82
    0.2604              -24.41          30.68          38.43          65.06           7.64          6.055          125.9          67.68         -116.8           13.2          15.83
     0.284              -24.41          30.68          38.43          65.05          7.634           6.05          125.9          67.65         -116.8          13.22          15.83
    0.3077              -24.41          30.68          38.42          65.05          7.627          6.043          125.8          67.63         -116.7          13.24          15.84
    0.3314              -24.41          30.68          38.42          65.04           7.62          6.037          125.8           67.6         -116.7          13.27          15.84
     0.355              -24.41          30.68          38.42          65.03          7.612          6.029          125.7          67.57         -116.6          13.29          15.85
    0.3787              -24.41          30.68          38.41          65.03          7.603          6.021          125.7          67.54         -116.6          13.32          15.85
    0.4024               -24.4          30.68          38.41          65.02          7.594          6.013          125.7           67.5         -116.5          13.34          15.86
     0.426               -24.4          30.67          38.41          65.01          7.583          6.003          125.6          67.46         -116.5          13.37          15.87
    0.4497               -24.4          30.67           38.4           65.0          7.572          5.993          125.6          67.42         -116.4          13.41          15.87
    0.4734               -24.4          30.67           38.4          64.98           7.56          5.982          125.5          67.38         -116.3          13.44          15.88
     0.497               -24.4          30.67          38.39          64.97          7.546          5.969          125.4          67.33         -116.2          13.49          15.89
    0.5207              -24.39          30.67          38.38          64.96          7.531          5.956          125.4          67.27         -116.1          13.53           15.9
    0.5444              -24.39          30.66          38.38          64.94          7.515           5.94          125.3          67.21         -116.0          13.58          15.91
     0.568              -24.39          30.66          38.37          64.92          7.496          5.923          125.2          67.14         -115.9          13.64          15.92
    0.5917              -24.39          30.66          38.36          64.91          7.476          5.905          125.1          67.06         -115.8           13.7          15.94
    0.6154              -24.38          30.65          38.35          64.88          7.453          5.883          125.0          66.97         -115.7          13.77          15.95
     0.639              -24.38          30.65          38.34          64.86          7.427           5.86          124.8          66.88         -115.5          13.84          15.97
    0.6627              -24.37          30.64          38.33          64.83          7.397          5.833          124.7          66.77         -115.3          13.93          15.99
    0.6864              -24.37          30.64          38.31           64.8          7.364          5.802          124.5          66.64         -115.1          14.03          16.01
    0.7101              -24.36          30.63           38.3          64.76          7.326          5.767          124.4           66.5         -114.9          14.15          16.04
    0.7337              -24.36          30.63          38.28          64.72          7.283          5.727          124.1          66.34         -114.6          14.28          16.07
    0.7574              -24.35          30.62          38.26          64.68          7.232          5.681          123.9          66.15         -114.3          14.43           16.1
    0.7811              -24.34          30.61          38.23          64.62          7.174          5.627          123.6          65.93         -113.9           14.6          16.14
    0.8047              -24.33           30.6           38.2          64.56          7.105          5.565          123.3          65.67         -113.5          14.81          16.19
    0.8284              -24.32          30.58          38.17          64.48          7.025          5.491          122.9          65.37         -113.0          15.05          16.25
    0.8521               -24.3          30.57          38.13          64.39          6.929          5.403          122.4          65.01         -112.4          15.34          16.31
    0.8757              -24.29          30.55          38.08          64.28          6.814          5.297          121.9          64.58         -111.7          15.68          16.39
    0.8994              -24.27          30.53          38.02          64.15          6.675           5.17          121.2          64.06         -110.9           16.1          16.49
    0.9231              -24.24           30.5          37.95          63.99          6.505          5.014          120.3          63.43         -109.8          16.61           16.6
    0.9467              -24.21          30.47          37.86          63.79          6.296          4.821          119.3          62.64         -108.5          17.24          16.74
    0.9704              -24.17          30.42          37.75          63.54          6.034          4.581          118.0          61.66         -106.9          18.02          16.92
    0.9941              -24.12          30.37          37.61          63.23          5.705          4.279          116.4          60.43         -104.9          19.01          17.15
     1.018              -24.06           30.3          37.44          62.84          5.287          3.895          114.4          58.86         -102.4          20.27          17.43
     1.041              -23.98          30.22          37.21          62.33          4.751          3.403          111.8          56.86         -99.07          21.87           17.8
     1.065              -23.88          30.11          36.92          61.68          4.064          2.773          108.4          54.28         -94.85          23.93          18.27
     1.089              -23.75          29.96          36.55          60.85          3.186          1.967          104.1           51.0         -89.46          26.57          18.87
     1.112              -23.58          29.79          36.08          59.81          2.082         0.9531          98.72          46.86         -82.69          29.88          19.62
     1.136              -23.39          29.57          35.51          58.54         0.7366        -0.2818          92.15          41.82         -74.43          33.92          20.54
      1.16              -23.15          29.32          34.86          57.07        -0.8228         -1.713          84.53          35.98         -64.86           38.6           21.6
     1.183               -22.9          29.05          34.14          55.47         -2.511         -3.263          76.27          29.66          -54.5          43.66          22.76
     1.207              -22.65          28.77          33.43          53.88           -4.2         -4.813          68.02          23.34         -44.13          48.73          23.91
     1.231              -22.42          28.52          32.77           52.4         -5.759         -6.245           60.4           17.5         -34.56          53.41          24.97
     1.254              -22.22           28.3           32.2          51.13         -7.104          -7.48          53.83          12.46         -26.31          57.44          25.89
